<svg xmlns="http://www.w3.org/2000/svg" viewBox="0 0 78 57.71">
  <defs>
    <style>
      .cls-1 {
        fill: #5c2c4e;
      }
    </style>
  </defs>
  <title>b2b-preim-1</title>
  <g id="Layer_2" data-name="Layer 2">
    <g id="Слой_1" data-name="Слой 1">
      <g>
        <path class="cls-1" d="M77.17,53.14H68.26V51.88a.84.84,0,0,0-1.68,0v1.26H45.85V51.88a.84.84,0,0,0-1.68,0v1.26H30.57V51.88a.84.84,0,0,0-1.68,0v1.26H19.74V51.88a.84.84,0,0,0-1.68,0v1.26H4.57V.84a.84.84,0,0,0-1.68,0V8.77h-2a.84.84,0,1,0,0,1.68h2v1.47h-2a.84.84,0,0,0,0,1.68h2v1.47h-2a.84.84,0,0,0,0,1.68h2v1.47h-2a.84.84,0,0,0,0,1.68h2V21.4h-2a.84.84,0,0,0,0,1.68h2v1.47h-2a.84.84,0,0,0,0,1.68h2v1.47h-2a.84.84,0,1,0,0,1.68h2v1.47h-2a.84.84,0,1,0,0,1.68h2V34h-2a.84.84,0,1,0,0,1.68h2v1.47h-2a.84.84,0,0,0,0,1.68h2v1.47h-2A.84.84,0,0,0,.84,42h2v1.47h-2a.84.84,0,1,0,0,1.68h2v1.47h-2a.84.84,0,0,0,0,1.68h2v1.47h-2a.84.84,0,1,0,0,1.68h2V54a.84.84,0,0,0,.84.84H6.31v2a.84.84,0,1,0,1.68,0v-2H9.46v2a.84.84,0,0,0,1.68,0v-2h1.47v2a.84.84,0,0,0,1.68,0v-2h1.47v2a.84.84,0,0,0,1.68,0v-2h1.47v2a.84.84,0,0,0,1.68,0v-2h1.47v2a.84.84,0,0,0,1.68,0v-2h1.47v2a.84.84,0,0,0,1.68,0v-2h1.47v2a.84.84,0,0,0,1.68,0v-2h1.47v2a.84.84,0,0,0,1.68,0v-2h1.47v2a.84.84,0,1,0,1.68,0v-2h1.47v2a.84.84,0,1,0,1.68,0v-2H41v2a.84.84,0,1,0,1.68,0v-2h1.47v2a.84.84,0,1,0,1.68,0v-2h1.47v2a.84.84,0,1,0,1.68,0v-2h1.47v2a.84.84,0,1,0,1.68,0v-2h1.47v2a.84.84,0,1,0,1.68,0v-2h1.47v2a.84.84,0,1,0,1.68,0v-2h1.47v2a.84.84,0,1,0,1.68,0v-2H63.1v2a.84.84,0,1,0,1.68,0v-2h1.47v2a.84.84,0,1,0,1.68,0v-2h1.47v2a.84.84,0,1,0,1.68,0v-2h1.47v2a.84.84,0,1,0,1.68,0v-2h2.91A.84.84,0,0,0,78,54,.83.83,0,0,0,77.17,53.14Z"/>
        <path class="cls-1" d="M9.57,40.66l8.49-8.48v.07a.84.84,0,0,0,1.68,0v-.07l9.15,9.15v1.76a.84.84,0,0,0,1.68,0V41.33l13.6-13.6v.07a.84.84,0,1,0,1.68,0v-.07l.67.67a.84.84,0,0,0,1.19,0L65.79,10.33l-.81,3a.84.84,0,0,0,.59,1l.22,0a.84.84,0,0,0,.78-.53V17.3a.84.84,0,1,0,1.68,0V13.46a.84.84,0,0,0-1.39-.63l.64-2.38a.84.84,0,0,0,.76-.83V7.51h0a.77.77,0,0,0,0-.14v0a.89.89,0,0,0,0-.12h0v0l-.06-.11V7L68,6.92h0l-.11-.09h0l-.1-.06h0l-.12,0h-.4l-6,1.62a.84.84,0,0,0,.44,1.62l3-.81L47.12,26.62l-1.51-1.51L45.48,25l-.06,0-.08,0-.08,0-.08,0-.15,0h0l-.16,0-.07,0-.09,0-.08,0-.07,0-.13.11L29.73,39.79,19.49,29.55l-.13-.11-.06,0-.08,0-.08,0-.07,0a.86.86,0,0,0-.33,0l-.07,0-.08,0-.08,0-.06,0-.13.11L8.38,39.47a.84.84,0,0,0,1.19,1.19Z"/>
        <path class="cls-1" d="M18.9,43.19a.84.84,0,0,0-.84.84V48a.84.84,0,1,0,1.68,0V44A.84.84,0,0,0,18.9,43.19Z"/>
        <path class="cls-1" d="M19.74,36.18a.84.84,0,1,0-1.68,0V40.1a.84.84,0,1,0,1.68,0Z"/>
        <path class="cls-1" d="M29.73,45.18a.84.84,0,0,0-.84.84v2.93a.84.84,0,0,0,1.68,0V46A.84.84,0,0,0,29.73,45.18Z"/>
        <path class="cls-1" d="M45.85,32.62a.84.84,0,0,0-1.68,0v4.81a.84.84,0,0,0,1.68,0Z"/>
        <path class="cls-1" d="M45,41.41a.84.84,0,0,0-.84.84v4.81a.84.84,0,0,0,1.68,0V42.25A.84.84,0,0,0,45,41.41Z"/>
        <path class="cls-1" d="M68.26,36.51a.84.84,0,1,0-1.68,0v3.84a.84.84,0,1,0,1.68,0Z"/>
        <path class="cls-1" d="M68.26,28.83a.84.84,0,0,0-1.68,0v3.84a.84.84,0,1,0,1.68,0Z"/>
        <path class="cls-1" d="M68.26,21.14a.84.84,0,1,0-1.68,0V25a.84.84,0,0,0,1.68,0Z"/>
        <path class="cls-1" d="M67.42,43.35a.84.84,0,0,0-.84.84V48a.84.84,0,0,0,1.68,0V44.19A.84.84,0,0,0,67.42,43.35Z"/>
      </g>
    </g>
  </g>
</svg>
