<svg xmlns="http://www.w3.org/2000/svg" viewBox="0 0 75 80">
  <defs>
    <style>
      .cls-1 {
        fill: #5c2c4e;
      }

      .cls-2, .cls-3 {
        fill: none;
        stroke: #5c2c4e;
        stroke-miterlimit: 10;
      }

      .cls-3 {
        stroke-dasharray: 2.01 2.01;
      }
    </style>
  </defs>
  <title>b2b-preim-5</title>
  <g id="Layer_2" data-name="Layer 2">
    <g id="Слой_1" data-name="Слой 1">
      <g>
        <path class="cls-1" d="M65,73V6a6,6,0,0,0-6-6H6A6,6,0,0,0,0,6V7H10V74a6,6,0,0,0,6,6H69a6,6,0,0,0,6-6V73ZM2.17,5A4,4,0,0,1,6,2H6A3.68,3.68,0,0,1,9.83,5H2.17ZM12,74V7h0L12,6A6.91,6.91,0,0,0,10.6,2H59a4,4,0,0,1,4,4V73H20v1a4,4,0,0,1-8,0ZM69,78H20.53A6,6,0,0,0,22,75H72.83A4,4,0,0,1,69,78Z"/>
        <rect class="cls-1" x="32.61" y="12.06" width="9.78" height="2.04"/>
        <rect class="cls-1" x="17.28" y="22.47" width="40.45" height="2.04"/>
        <rect class="cls-1" x="17.28" y="27.98" width="40.45" height="2.04"/>
        <rect class="cls-1" x="17.28" y="33.49" width="40.45" height="2.04"/>
        <rect class="cls-1" x="17.28" y="44.49" width="40.45" height="2.04"/>
        <rect class="cls-1" x="17.28" y="50" width="40.45" height="2.04"/>
        <rect class="cls-1" x="17.28" y="55.51" width="40.45" height="2.04"/>
        <rect class="cls-1" x="49.13" y="64.22" width="8.59" height="2.04"/>
        <rect class="cls-1" x="17.28" y="38.98" width="40.45" height="2.04"/>
      </g>
      <g>
        <circle class="cls-2" cx="24.16" cy="65.24" r="6.88"/>
        <circle class="cls-3" cx="24.16" cy="65.24" r="5.13"/>
        <line class="cls-2" x1="22.19" y1="63.88" x2="26.12" y2="63.88"/>
        <line class="cls-2" x1="21.24" y1="65.84" x2="27.07" y2="65.84"/>
      </g>
    </g>
  </g>
</svg>
