<svg xmlns="http://www.w3.org/2000/svg" viewBox="0 0 76 81.23">
  <defs>
    <style>
      .cls-1 {
        fill: #5c2c4e;
      }
    </style>
  </defs>
  <title>b2b-preim-3</title>
  <g id="Layer_2" data-name="Layer 2">
    <g id="Слой_1" data-name="Слой 1">
      <g>
        <path class="cls-1" d="M63,7.56q.14-3.2.14-6.61V0H12.88V1q0,3.38.14,6.57A16.11,16.11,0,1,0,20,39a32.67,32.67,0,0,0,4.66,6.77,22.51,22.51,0,0,0,7,5.29V70.54a22.48,22.48,0,0,0-3.13,1.08c-4.43,1.92-6.78,4.91-6.78,8.65v1H54.29v-1c0-3.74-2.34-6.73-6.78-8.65a22.47,22.47,0,0,0-3.13-1.08V51a22.53,22.53,0,0,0,7-5.29A32.71,32.71,0,0,0,56,39,16.11,16.11,0,1,0,63,7.56Zm-.39,5.9a10.43,10.43,0,0,1,7.67,9.86A10.61,10.61,0,0,1,59.4,33.64c-.34,0-.68,0-1,0q.6-1.6,1.12-3.33A84.91,84.91,0,0,0,62.58,13.46ZM16.11,37.54a14.2,14.2,0,0,1-3-28.08q.06,1,.14,2.05l-.18,0A12.36,12.36,0,0,0,3.8,23.32,12.52,12.52,0,0,0,16.56,35.55a13.63,13.63,0,0,0,1.51-.08l.27,0c.25.61.52,1.2.79,1.79A14.23,14.23,0,0,1,16.11,37.54Zm.38-7.27Q17,32,17.61,33.59c-.35,0-.7,0-1,0A10.61,10.61,0,0,1,5.71,23.32a10.44,10.44,0,0,1,7.7-9.88A84.81,84.81,0,0,0,16.49,30.27Zm7.19,49a6,6,0,0,1,.67-2H51.64a6,6,0,0,1,.67,2ZM50.1,75.4H25.9c3.47-3.11,9.92-3.87,12.1-3.87S46.63,72.29,50.1,75.4ZM40,56.07h2.47v1H40A1,1,0,0,0,40,59h2.47v1H40A1,1,0,0,0,40,62h2.47v.88H40a1,1,0,0,0,0,1.91h2.47v1H40a1,1,0,0,0,0,1.91h2.47V70.1A25.17,25.17,0,0,0,38,69.62a25.15,25.15,0,0,0-4.47.48V51.82a14.16,14.16,0,0,0,4.41.87h.13a14.17,14.17,0,0,0,4.41-.87v2.34H40a1,1,0,1,0,0,1.91Zm9.93-11.61c-5.58,6.15-11.24,6.32-11.87,6.32h-.13c-.63,0-6.29-.18-11.87-6.32A33.15,33.15,0,0,1,20.25,35c-.24-.57-.48-1.16-.71-1.78A76.16,76.16,0,0,1,15.3,13.07q-.08-.93-.15-1.9c-.21-2.87-.33-6-.35-9.27H61.21c0,3.31-.14,6.4-.35,9.27h0c0,.64-.1,1.28-.15,1.9h0a76.16,76.16,0,0,1-4.24,20.17h0c-.23.61-.47,1.21-.71,1.78h0A33.23,33.23,0,0,1,49.93,44.46Zm10-6.89a14.27,14.27,0,0,1-3-.33q.42-.88.8-1.81l.23,0a13.63,13.63,0,0,0,1.51.08A12.52,12.52,0,0,0,72.16,23.32a12.36,12.36,0,0,0-9.28-11.77l-.14,0c.05-.67.1-1.35.14-2a14.2,14.2,0,0,1-3,28.08Z"/>
        <path class="cls-1" d="M38,6.48,33.82,21.26l-5.49,3-1.86,1,1.53.84,5.81,3.18L38,44.09,42.18,29.3l7.35-4-7.35-4ZM40.56,28,38,37.08,35.44,28l-5-2.73,5-2.73L38,13.49l2.56,9.07,5,2.73Z"/>
      </g>
    </g>
  </g>
</svg>
