<svg xmlns="http://www.w3.org/2000/svg" viewBox="0 0 80 80">
  <defs>
    <style>
      .cls-1 {
        fill: #5c2c4e;
      }
    </style>
  </defs>
  <title>b2b-preim-4</title>
  <g id="Layer_2" data-name="Layer 2">
    <g id="Слой_1" data-name="Слой 1">
      <path class="cls-1" d="M70.85,9.15a31.24,31.24,0,0,0-48.36,39L0,70.63,9.38,80,31.86,57.51a31.24,31.24,0,0,0,39-48.36Zm-.74,42-3.19-3.19a24.66,24.66,0,0,0,0-33.4l3.19-3.19a29.17,29.17,0,0,1,0,39.78ZM48.77,53.85a22.61,22.61,0,1,1,16-6.62A22.46,22.46,0,0,1,48.77,53.85Zm19.89-44-3.19,3.19a24.66,24.66,0,0,0-33.4,0L28.87,9.89a29.17,29.17,0,0,1,39.78,0ZM27.42,11.34l3.19,3.19a24.67,24.67,0,0,0,0,33.4l-3.19,3.19A29.22,29.22,0,0,1,27.42,11.34ZM9,64.51,15.49,71l-1.24,1.24L7.78,65.75ZM2.91,70.63,6.33,67.2l6.47,6.47L9.38,77.09Zm14-1.1-6.47-6.47L23.68,49.85a31.54,31.54,0,0,0,6.46,6.47ZM28.87,52.58l3.19-3.19a24.66,24.66,0,0,0,33.4,0l3.19,3.19a29.17,29.17,0,0,1-39.78,0Z"/>
      <path class="cls-1" d="M40.56,31.29l2-2L40.16,27l1.52-1.56L44,27.71l8.84-9.09,5,4.84c5.22,5.07,2.88,9.26.92,11.28-2.57,2.65-6.78,3.75-11.28-.62L44.3,31l-2,2,6.18,6L47,40.55l-6.18-6-3.51,3.61-1.78-1.73,3.51-3.61-2.36-2.29L38.2,29Zm5.26-1.85L49,32.57c3.18,3.09,6.13,2.31,7.93.46s2.52-4.85-.66-7.94L53.09,22Z"/>
      <path class="cls-1" d="M35,20.35l.75-.77-.9-.88.58-.6.9.88,3.39-3.49,1.91,1.86c2,1.94,1.11,3.55.35,4.32-1,1-2.6,1.44-4.32-.24L36.4,20.24l-.75.77L38,23.32l-.56.58-2.37-2.3L33.74,23l-.68-.66,1.34-1.38-.9-.88.56-.58Zm2-.71,1.24,1.2c1.22,1.18,2.35.88,3,.18s1-1.86-.25-3l-1.24-1.2Z"/>
      <path class="cls-1" d="M56.89,42.59l.84-.86-1-1,.65-.67,1,1,3.78-3.89,2.13,2.07c2.23,2.17,1.23,4,.39,4.82-1.1,1.13-2.9,1.6-4.82-.27l-1.37-1.33-.84.86L60.3,45.9l-.63.65L57,44l-1.5,1.54-.76-.74,1.5-1.54-1-1,.63-.65Zm2.25-.79,1.38,1.34c1.36,1.32,2.62,1,3.39.2s1.08-2.07-.28-3.4L62.25,38.6Z"/>
    </g>
  </g>
</svg>
