<svg xmlns="http://www.w3.org/2000/svg" viewBox="0 0 58 80.8">
  <defs>
    <style>
      .cls-1 {
        fill: #5c2c4e;
      }
    </style>
  </defs>
  <title>b2b-preim-2</title>
  <g id="Layer_2" data-name="Layer 2">
    <g id="Слой_1" data-name="Слой 1">
      <g>
        <path class="cls-1" d="M45.19,50.78l-.43.32v-4.7a23.49,23.49,0,1,0-31.53,0v4.7l-.43-.32a.93.93,0,0,0-1.11,1.49c.5.37,1,.73,1.54,1.07V79.87a.93.93,0,0,0,1.45.76L29,70.81l14.31,9.83a.93.93,0,0,0,1.45-.76V53.34c.52-.34,1-.7,1.54-1.07a.93.93,0,1,0-1.11-1.49ZM7.36,29A21.63,21.63,0,1,1,29,50.63,21.66,21.66,0,0,1,7.36,29ZM29.68,69a.92.92,0,0,0,.25-.62V59.51a.93.93,0,0,0-1.85,0V68.4a.92.92,0,0,0,.25.62L15.09,78.11V47.91a23.44,23.44,0,0,0,27.82,0v30.2Z"/>
        <path class="cls-1" d="M10.37,8.92A.92.92,0,0,0,11,8.69a27.26,27.26,0,0,1,3.5-2.63.93.93,0,1,0-1-1.56A29.26,29.26,0,0,0,9.76,7.3a.93.93,0,0,0,.62,1.62Z"/>
        <path class="cls-1" d="M1.3,24.33l.18,0a.93.93,0,0,0,.91-.74A27.09,27.09,0,0,1,3.6,19.4a.93.93,0,1,0-1.73-.66A28.81,28.81,0,0,0,.57,23.23.93.93,0,0,0,1.3,24.33Z"/>
        <path class="cls-1" d="M1.25,33.36a.93.93,0,0,0,.81-1A27.66,27.66,0,0,1,1.85,29c0-.35,0-.7,0-1A.93.93,0,0,0,0,27.88c0,.37,0,.75,0,1.12a29.54,29.54,0,0,0,.22,3.55.93.93,0,0,0,.92.81Z"/>
        <path class="cls-1" d="M55.62,23.65a.93.93,0,0,0,.91.75l.18,0a.93.93,0,0,0,.73-1.09,28.77,28.77,0,0,0-1.29-4.5.93.93,0,0,0-1.73.65A26.82,26.82,0,0,1,55.62,23.65Z"/>
        <path class="cls-1" d="M43.55,6.07A27.27,27.27,0,0,1,47,8.71a.93.93,0,1,0,1.23-1.38,29.24,29.24,0,0,0-3.73-2.82.93.93,0,0,0-1,1.56Z"/>
        <path class="cls-1" d="M26.83,1.94a27.83,27.83,0,0,1,4.38,0h.08A.93.93,0,0,0,31.36.09a29.63,29.63,0,0,0-4.67,0,.93.93,0,0,0,.15,1.85Z"/>
        <path class="cls-1" d="M35.53,2.64A27.12,27.12,0,0,1,39.68,4a.93.93,0,0,0,.73-1.7A28.79,28.79,0,0,0,36,.84a.93.93,0,0,0-.44,1.8Z"/>
        <path class="cls-1" d="M18,4.09A.93.93,0,0,0,18.36,4a27,27,0,0,1,4.15-1.38.93.93,0,0,0-.44-1.8,28.75,28.75,0,0,0-4.44,1.48A.93.93,0,0,0,18,4.09Z"/>
        <path class="cls-1" d="M54.15,14.56a29.09,29.09,0,0,0-2.65-3.85.93.93,0,1,0-1.44,1.17,27.49,27.49,0,0,1,2.48,3.61.93.93,0,1,0,1.61-.92Z"/>
        <path class="cls-1" d="M2.94,36.61a.93.93,0,0,0-1.78.52A28.7,28.7,0,0,0,2.83,41.5a.93.93,0,0,0,.84.53.9.9,0,0,0,.4-.09A.93.93,0,0,0,4.5,40.7,26.92,26.92,0,0,1,2.94,36.61Z"/>
        <path class="cls-1" d="M52.56,44.29a.93.93,0,0,0-1.29.23,27.36,27.36,0,0,1-2.79,3.38.93.93,0,1,0,1.33,1.29,29.29,29.29,0,0,0,3-3.61A.93.93,0,0,0,52.56,44.29Z"/>
        <path class="cls-1" d="M58,27.93a.93.93,0,0,0-1.85.07c0,.33,0,.67,0,1a27.67,27.67,0,0,1-.21,3.37.93.93,0,0,0,.81,1h.12a.93.93,0,0,0,.92-.81A29.25,29.25,0,0,0,58,29C58,28.64,58,28.28,58,27.93Z"/>
        <path class="cls-1" d="M56.2,36a.92.92,0,0,0-1.15.63,27.16,27.16,0,0,1-1.57,4.08A.93.93,0,0,0,53.91,42a1,1,0,0,0,.4.09.93.93,0,0,0,.84-.53,28.79,28.79,0,0,0,1.68-4.36A.93.93,0,0,0,56.2,36Z"/>
        <path class="cls-1" d="M6.7,44.48a.93.93,0,0,0-1.52,1.06,29.07,29.07,0,0,0,3,3.61.93.93,0,0,0,1.33-1.29A27.28,27.28,0,0,1,6.7,44.48Z"/>
        <path class="cls-1" d="M5.47,15.45A27.33,27.33,0,0,1,8,11.85a.93.93,0,1,0-1.43-1.17,29.13,29.13,0,0,0-2.66,3.85.93.93,0,0,0,.34,1.27.92.92,0,0,0,.46.12A.93.93,0,0,0,5.47,15.45Z"/>
        <path class="cls-1" d="M21.94,32.51l-1.35,7.87a.93.93,0,0,0,1.34,1L29,37.64l7.07,3.71a.93.93,0,0,0,1.34-1l-1.35-7.87,5.72-5.57a.93.93,0,0,0-.51-1.58l-7.9-1.15-3.53-7.16a.93.93,0,0,0-1.66,0l-3.53,7.16-7.9,1.15a.93.93,0,0,0-.51,1.58ZM25.38,26a.93.93,0,0,0,.7-.51L29,19.55l2.92,5.91a.93.93,0,0,0,.7.51l6.52.95-4.72,4.6a.93.93,0,0,0-.27.82l1.11,6.5-5.83-3.07a.92.92,0,0,0-.43-.11.94.94,0,0,0-.43.11l-5.83,3.07,1.11-6.5a.93.93,0,0,0-.27-.82l-4.72-4.6Z"/>
      </g>
    </g>
  </g>
</svg>
