<svg version="1.1" id="Capa_1" xmlns="http://www.w3.org/2000/svg" xmlns:xlink="http://www.w3.org/1999/xlink" x="0px" y="0px" viewBox="0 0 27.595 27.595" style="enable-background:new 0 0 27.595 27.595;" xml:space="preserve" fill="#5C2C4E">
    <path d="M21.137,5.941c-0.061-0.312-0.144-0.612-0.254-0.905l1.701,0.005l0.686,0.598h0.844l-1.265-1.055h-2.182
        c-0.787-1.627-2.33-2.805-4.187-3.062C15.504,0.578,14.233,0,12.836,0c-2.552,0-4.675,1.911-5.334,4.503L3.635,4.516l0.512,0.489
        h3.23h1.455H8.91L8.848,4.951c0.487-1.947,2.076-3.385,3.988-3.385c0.389,0,0.762,0.072,1.119,0.184
        c-1.868,0.633-3.289,2.223-3.665,4.191H4.975v21.654h19.264V5.941H21.137z M19.045,4.584h-0.856
        c-0.096-0.402-0.226-0.785-0.392-1.15C18.29,3.727,18.711,4.119,19.045,4.584z M11.736,5.941c0.462-1.766,2.05-3.073,3.957-3.083
        c0.636,0.486,1.039,1.347,1.146,2.155l2.481,0.018c0.152,0.288,0.287,0.588,0.369,0.91H11.736z"/>
    <polygon points="3.356,26.332 4.481,27.363 4.481,5.709 3.356,4.677"/>
</svg>
