<svg fill="#7e7e7e" xmlns="http://www.w3.org/2000/svg" width="31.47" height="31.5" viewBox="0 0 31.47 31.5">
	<path d="M1217.15,1747.25a15.75,15.75,0,1,1,15.74-15.75A15.765,15.765,0,0,1,1217.15,1747.25Zm0-30.58a14.83,14.83,0,1,0,14.82,14.83A14.841,14.841,0,0,0,1217.15,1716.67Zm0,28.01a13.18,13.18,0,1,1,13.17-13.18A13.19,13.19,0,0,1,1217.15,1744.68Zm0-25.44a12.26,12.26,0,1,0,12.25,12.26A12.266,12.266,0,0,0,1217.15,1719.24Zm0,23.68a0.459,0.459,0,0,1-.46-0.46v-1.02a0.46,0.46,0,1,1,.92,0v1.02A0.459,0.459,0,0,1,1217.15,1742.92Zm0-9.5a1.917,1.917,0,0,1-1.07-3.51v-8.72a1.07,1.07,0,1,1,2.14,0v8.72a1.978,1.978,0,0,1,.52.52h4.63a1.07,1.07,0,1,1,0,2.14h-4.63A1.93,1.93,0,0,1,1217.15,1733.42Zm0-2.92a1,1,0,1,0,1,1A1,1,0,0,0,1217.15,1730.5Zm1.92,1.15h4.3a0.156,0.156,0,0,0,.16-0.15,0.15,0.15,0,0,0-.16-0.15h-4.3v0.3h0Zm-2.07-2.07h0.3v-8.39a0.15,0.15,0,1,0-.3,0v8.39Zm11.11,2.5h-1.02a0.46,0.46,0,1,1,0-.92h1.02A0.46,0.46,0,1,1,1228.11,1732.08Zm-20.61,0h-1.02a0.46,0.46,0,0,1,0-.92h1.02A0.46,0.46,0,1,1,1207.5,1732.08Z" transform="translate(-1201.41 -1715.75)"/>
</svg>
