<svg fill="#7e7e7e" xmlns="http://www.w3.org/2000/svg" width="39" height="29.97" viewBox="0 0 39 29.97">
	<path d="M909.377,1745.98H871.623a0.623,0.623,0,0,1-.576-0.38,0.608,0.608,0,0,1,.135-0.67l7.491-7.38s0.007-.01.01-0.01l0.878-.87a0.653,0.653,0,0,1,.441-0.18h4.537a24.09,24.09,0,0,1-3.424-11.08c0-5.9,3.508-9.42,9.385-9.42s9.385,3.52,9.385,9.42a24,24,0,0,1-2.912,10.48c-0.17.31-.342,0.62-0.516,0.91h4.852a0.649,0.649,0,0,1,.441.18l8.068,7.95a0.61,0.61,0,0,1,.135.67A0.624,0.624,0,0,1,909.377,1745.98Zm-10.61-1.23h9.1l-6.82-6.72h-5.389a11.423,11.423,0,0,1-2.476,2.65c6.4,0.49,8.681.77,9,1.93a1.3,1.3,0,0,1-.762,1.39A7.945,7.945,0,0,1,898.767,1744.75Zm-25.638,0h3.951c8.262-.09,21.981-0.65,23.634-1.77a0.845,0.845,0,0,0,.121-0.09c-0.984-.47-4.793-0.76-7.9-0.99-0.806-.07-1.632-0.13-2.461-0.2a2.19,2.19,0,0,1-.44-0.04,33.218,33.218,0,0,1-10.792-2.93Zm17.032-4.31,0.363,0.03c3.42-.04,8.113-8.74,8.113-15.06,0-5.21-2.965-8.19-8.137-8.19s-8.137,2.98-8.137,8.19C882.363,1731.12,886.969,1739.84,890.161,1740.44Zm-9.981-2.64a32.487,32.487,0,0,0,7.023,2.21,14.861,14.861,0,0,1-1.885-2.29h-5.057Zm10.32-6.84a5.586,5.586,0,1,1,5.669-5.58A5.63,5.63,0,0,1,890.5,1730.96Zm0-9.94a4.356,4.356,0,1,0,4.422,4.36A4.393,4.393,0,0,0,890.5,1721.02Z" transform="translate(-871 -1716)"/>
</svg>
