<svg xmlns="http://www.w3.org/2000/svg" viewBox="0 0 43.34 43">
  <defs>
    <style>
      .cls-1 {
        fill: #c93374;
      }

      .cls-1, .cls-2 {
        fill-rule: evenodd;
      }

      .cls-2 {
        fill: none;
        stroke: #c93374;
        stroke-miterlimit: 10;
      }
    </style>
  </defs>
  <title>mob-insta</title>
  <g id="Слой_2" data-name="Слой 2">
    <g id="Слой_1-2" data-name="Слой 1">
      <path class="cls-1" d="M12.78,10H29.89a3,3,0,0,1,3,3v17.1a3,3,0,0,1-3,3H12.78a3,3,0,0,1-2.95-3V13a3,3,0,0,1,2.95-3Zm13.81,2.56h0a1,1,0,0,0-1,1v2.48a1,1,0,0,0,1,1h2.6a1,1,0,0,0,1-1V13.6a1,1,0,0,0-1-1Zm3.65,7.17h-2a6.49,6.49,0,0,1,.3,2,7,7,0,0,1-7.15,6.93,7,7,0,0,1-7.16-6.93,6.81,6.81,0,0,1,.3-2H12.38v9.72a.92.92,0,0,0,.92.91h16a.92.92,0,0,0,.92-.91V19.74ZM21.36,17h0A4.48,4.48,0,1,0,26,21.46,4.55,4.55,0,0,0,21.36,17Z"/>
      <path class="cls-2" d="M21.67.5A21,21,0,1,1,.5,21.5,21.09,21.09,0,0,1,21.67.5Z"/>
    </g>
  </g>
</svg>
