<svg fill="#7e7e7e" xmlns="http://www.w3.org/2000/svg" width="30.63" height="31.5" viewBox="0 0 30.63 31.5">
	<path d="M1391.72,1747.25c-0.4,0-.64-0.03-0.7-0.03a0.533,0.533,0,0,1-.28-0.14c-0.01,0-.01,0-0.01-0.01l-2.42-2.39a2.306,2.306,0,0,1,0-3.29l4.58-4.55a2.363,2.363,0,0,1,1.66-.68,2.328,2.328,0,0,1,1.66.68l2.26,2.25c0.71-.05,3.38-0.45,6.46-3.51,3.11-3.09,3.43-5.64,3.46-6.31l-2.27-2.26a2.324,2.324,0,0,1,0-3.29l4.59-4.54a2.348,2.348,0,0,1,3.31,0l2.42,2.39c0,0.01,0,.01.01,0.01h0a0.517,0.517,0,0,1,.13.28c0.05,0.39.89,7.65-8.44,16.9C1400.3,1746.54,1393.81,1747.25,1391.72,1747.25Zm6.77-7.17-6.21,6.15c2.39-.16,8.25-1.32,15.16-8.17s8.02-12.62,8.16-14.95l-6.21,6.16c-0.03.82-.38,3.66-3.75,7.01C1402.25,1739.63,1399.32,1740.03,1398.49,1740.08Zm-3.94-2.93a1.348,1.348,0,0,0-.95.39l-4.59,4.55a1.34,1.34,0,0,0,0,1.89l2.07,2.05,6.49-6.44-2.06-2.05A1.371,1.371,0,0,0,1394.55,1737.15Zm17.81-17.67a1.324,1.324,0,0,0-.95.4l-4.58,4.54a1.324,1.324,0,0,0-.4.95,1.285,1.285,0,0,0,.4.94l2.06,2.05,6.49-6.44-2.06-2.04A1.347,1.347,0,0,0,1412.36,1719.48Zm-18.52,12.11a0.5,0.5,0,0,1-.5-0.49,8.1,8.1,0,0,1,8.13-8.06,0.5,0.5,0,0,1,0,.99,7.108,7.108,0,0,0-7.13,7.07A0.493,0.493,0,0,1,1393.84,1731.59Zm-3.72,0a0.5,0.5,0,0,1-.5-0.49,11.816,11.816,0,0,1,11.85-11.75,0.5,0.5,0,0,1,0,.99,10.808,10.808,0,0,0-10.85,10.76A0.493,0.493,0,0,1,1390.12,1731.59Zm-3.63,0a0.493,0.493,0,0,1-.5-0.49,15.426,15.426,0,0,1,15.48-15.35,0.5,0.5,0,0,1,0,.99,14.432,14.432,0,0,0-14.48,14.36A0.5,0.5,0,0,1,1386.49,1731.59Z" transform="translate(-1386 -1715.75)"/>
</svg>
