<svg xmlns="http://www.w3.org/2000/svg" width="57.97" height="48.88" viewBox="0 0 57.97 48.88">
  <defs>
    <style>
      .cls-1 {
        fill: #5c2c4e;
        fill-rule: evenodd;
      }
    </style>
  </defs>
  <path id="руки" class="cls-1" d="M1018.78,2891.59a0.762,0.762,0,0,0-1.08-.06l-1.51,1.36-8.18-8.13a0.761,0.761,0,0,0-1.08.01,0.773,0.773,0,0,0,0,1.09l8.11,8.06-4.01,3.61-13.357-13.56,13.277-12.59a0.771,0.771,0,0,0-1.06-1.12l-13.844,13.13a0.776,0.776,0,0,0-.24.55,0.747,0.747,0,0,0,.221.55l1.23,1.25-2.709,2.84-5.227-.55a0.728,0.728,0,0,0-.622.22l-2.125,2.11-3.949-3.91,1.331-1.35a0.783,0.783,0,0,0-.019-1.11l-13.846-13.13a0.77,0.77,0,0,0-1.056,1.12l9.343,8.86L964.7,2894.3l-2.409-2.16a0.767,0.767,0,0,0-1.085.05,0.775,0.775,0,0,0,.058,1.09l7.214,6.49a0.762,0.762,0,0,0,1.06-.03l1.307-1.33,7.184,7.11-1.319,1.34a0.777,0.777,0,0,0,0,1.09l2.694,2.7h0l2.694,2.67,2.691,2.7,2.693,2.7a0.757,0.757,0,0,0,1.087,0l1.393-1.4,1.417,1.4a0.763,0.763,0,0,0,.54.23,0.772,0.772,0,0,0,.543-0.23l2.15-2.16,0.318,0.32a0.756,0.756,0,0,0,1.086,0l2.15-2.15,0.318,0.31a0.756,0.756,0,0,0,1.086,0l2.147-2.15,0.32,0.32a0.785,0.785,0,0,0,1.09,0l2.69-2.7a0.773,0.773,0,0,0,0-1.09l-4-4.01,7.23-7.69,1.4,1.42a0.762,0.762,0,0,0,1.06.03l7.21-6.49A0.765,0.765,0,0,0,1018.78,2891.59Zm-38.855.43a3.369,3.369,0,0,1-3.362,3.37,3.332,3.332,0,0,1-2.023-.68l4.705-4.72A3.371,3.371,0,0,1,979.925,2892.02Zm0.41-3.12,1.282-1.29,0.693,0.69-1.412,1.45A4.764,4.764,0,0,0,980.335,2888.9Zm-11.38,9.24-3.114-2.81L979.5,2881.9l2.817,2.67Zm4.5-2.34a4.6,4.6,0,0,0,.878.58c-0.244.25-.5,0.51-0.748,0.78-0.306.31-.6,0.62-0.892,0.92l-0.758-.75Zm5.669,10.8,1.615,1.6-0.793.81-1.606-1.61Zm3.518,5.09-1.6-1.59,0.8-.82,1.612,1.6Zm1.9,0.27,1.618,1.6-0.825.82-1.607-1.61Zm3.488,5.13-1.607-1.62,0.832-.83,1.618,1.6Zm14.552-5.52-0.31-.32h0l-3.106-3.11h0l-0.943-.94a0.77,0.77,0,0,0-1.087,1.09l3.506,3.51-1.61,1.61-4.363-4.37a0.75,0.75,0,0,0-1.086,0,0.761,0.761,0,0,0,0,1.08l0.944,0.95,2.558,2.57-1.607,1.61-2.523-2.53-0.9-.9h0l-0.943-.95a0.769,0.769,0,0,0-1.086,1.09l1.763,1.77,1.739,1.75-1.611,1.61-18.136-17.93c0.291-.3.593-0.61,0.9-0.93,0.453-.47.9-0.93,1.295-1.34a3.809,3.809,0,0,0,.585.04,4.907,4.907,0,0,0,4.9-4.91,4.837,4.837,0,0,0-.04-0.6l1.983-2.04,2.08,2.06-7.253,7.21a0.779,0.779,0,0,0-.226.59,0.759,0.759,0,0,0,.289.56c0.179,0.15,4.386,3.34,11.691-4.08l14.205,14.24Zm-1.85-7.25-10.212-10.25a0.776,0.776,0,0,0-.556-0.22,0.756,0.756,0,0,0-.547.24c-4.713,5.03-7.87,5.18-9.294,4.85l9.4-9.34,3.685,0.39-0.553.58a0.771,0.771,0,0,0,1.11,1.07l4.416-4.64,9.691,9.72Zm1.35-22.12a2.4,2.4,0,1,0,2.4-2.4A2.4,2.4,0,0,0,1002.08,2882.2Zm3.26,0a0.865,0.865,0,1,1-.86-0.86A0.869,0.869,0,0,1,1005.34,2882.2Z" transform="translate(-961 -2870.06)"/>
</svg>
