<svg xmlns="http://www.w3.org/2000/svg" width="52.84" height="51" viewBox="0 0 52.84 51">
  <defs>
    <style>
      .cls-1 {
        fill: #5c2c4e;
        fill-rule: evenodd;
      }
    </style>
  </defs>
  <path id="машинка_" data-name="машинка " class="cls-1" d="M1287.28,2909.39h46.74c0.86,0,4.55.7,4.55,1.56v6.49a1.545,1.545,0,0,1-1.55,1.55h-49.74a1.545,1.545,0,0,1-1.55-1.55v-6.49A1.553,1.553,0,0,1,1287.28,2909.39Zm49.74,8.05v-6.49h-49.74v6.49h49.74Zm-41.67-29.58h14.97a1.169,1.169,0,0,1,1.17,1.16v6.75a1.178,1.178,0,0,1-1.17,1.17h-14.97a1.178,1.178,0,0,1-1.17-1.17v-6.75A1.169,1.169,0,0,1,1295.35,2887.86Zm-0.39,7.91a0.384,0.384,0,0,0,.39.39h14.97a0.384,0.384,0,0,0,.39-0.39v-6.75a0.39,0.39,0,0,0-.39-0.39h-14.97a0.39,0.39,0,0,0-.39.39v6.75Zm13.65,2.04a1.7,1.7,0,1,1-1.69,1.7A1.7,1.7,0,0,1,1308.61,2897.81Zm0,2.62a0.925,0.925,0,0,0,0-1.85A0.925,0.925,0,0,0,1308.61,2900.43Zm-5.78-2.62a1.7,1.7,0,1,1-1.69,1.7A1.7,1.7,0,0,1,1302.83,2897.81Zm0,2.62a0.925,0.925,0,0,0,0-1.85A0.925,0.925,0,0,0,1302.83,2900.43Zm-5.78-2.62a1.7,1.7,0,1,1-1.69,1.7A1.7,1.7,0,0,1,1297.05,2897.81Zm0,2.62a0.925,0.925,0,1,0-.91-0.92A0.915,0.915,0,0,0,1297.05,2900.43Zm-0.59-13.43a1.04,1.04,0,1,1,1.04-1.04A1.046,1.046,0,0,1,1296.46,2887Zm0-1.7a0.657,0.657,0,0,0-.65.66,0.65,0.65,0,0,0,1.3,0A0.657,0.657,0,0,0,1296.46,2885.3Zm6.39,1.7a1.04,1.04,0,1,1,1.04-1.04A1.046,1.046,0,0,1,1302.85,2887Zm0-1.7a0.657,0.657,0,0,0-.65.66,0.65,0.65,0,0,0,1.3,0A0.657,0.657,0,0,0,1302.85,2885.3Zm6.39,1.7a1.04,1.04,0,1,1,1.04-1.04A1.037,1.037,0,0,1,1309.24,2887Zm0-1.7a0.657,0.657,0,0,0-.65.66,0.65,0.65,0,0,0,1.3,0A0.657,0.657,0,0,0,1309.24,2885.3Zm18.49,11.64a0.651,0.651,0,0,0,.65-0.66v-3.05a0.651,0.651,0,0,0-.65-0.66,0.659,0.659,0,0,0-.66.66v3.05A0.659,0.659,0,0,0,1327.73,2896.94Zm-35.58-21.28h34.19a1.639,1.639,0,0,1,1.63,1.64v2.52a1.639,1.639,0,0,1-1.63,1.64h-34.19a1.639,1.639,0,0,1-1.63-1.64v-2.52A1.639,1.639,0,0,1,1292.15,2875.66Zm34.56,1.64a0.371,0.371,0,0,0-.37-0.38h-34.19a0.38,0.38,0,0,0-.38.38v2.52a0.38,0.38,0,0,0,.38.38h34.19a0.371,0.371,0,0,0,.37-0.38v-2.52Zm-38.47-4.62a1.562,1.562,0,0,1,1.56-1.56h4.96v-1.16a1.763,1.763,0,0,1,1.76-1.76h9.49a1.754,1.754,0,0,1,1.75,1.76v1.17l15.85,0.02a1.5,1.5,0,0,1,.8-1.45,0.572,0.572,0,0,0,.01-0.14,1.56,1.56,0,0,1,1.55-1.56h0.7a1.57,1.57,0,0,1,1.55,1.63,0.17,0.17,0,0,0,.01.07,1.412,1.412,0,0,1,.79,1.35h0.8a1.56,1.56,0,0,1,1.55,1.56l1,19.59a1.553,1.553,0,0,1-1.55,1.56h-6.2a1.56,1.56,0,0,1-1.55-1.56v-4.34a1.819,1.819,0,0,0-.26-0.86,0.978,0.978,0,0,0-.58-0.25h-3.03a1.27,1.27,0,0,0-.73.31,1.553,1.553,0,0,0-.34.8v10.5h18.31a1.56,1.56,0,0,1,1.55,1.56v7.01a1.56,1.56,0,0,1-1.55,1.56h-48.65a1.553,1.553,0,0,1-1.55-1.56Zm18.02-2.72a0.248,0.248,0,0,0-.25-0.25h-9.49a0.248,0.248,0,0,0-.25.25v1.16l9.99,0.01v-1.17Zm30.18,36.97v-7.01H1318.1a1.544,1.544,0,0,1-1.1-.46,1.516,1.516,0,0,1-.42-1.1v-10.51a3.115,3.115,0,0,1,.76-1.86,2.808,2.808,0,0,1,1.86-.79h3.03a2.423,2.423,0,0,1,1.81.85,3.274,3.274,0,0,1,.58,1.81v4.34h6.2l-1-19.59h-0.8a1.527,1.527,0,0,1-1.55-1.49v-0.01a1.527,1.527,0,0,1-.8-1.52h-0.7a1.556,1.556,0,0,1-.81,1.52v0.04a1.541,1.541,0,0,1-1.55,1.53h-33.82l-2,34.25h48.65Z" transform="translate(-1285.72 -2868)"/>
</svg>
