<svg xmlns="http://www.w3.org/2000/svg" width="50" height="49.09" viewBox="0 0 50 49.09">
  <defs>
    <style>
      .cls-1 {
        fill: #5c2c4e;
        fill-rule: evenodd;
      }
    </style>
  </defs>
  <path id="копилка" class="cls-1" d="M694.889,2901.69a0.965,0.965,0,1,1,.963-0.97A0.964,0.964,0,0,1,694.889,2901.69Zm0-1.43a0.465,0.465,0,1,0,.465.46A0.465,0.465,0,0,0,694.889,2900.26Zm-9.4,18.79h-8.735a0.716,0.716,0,0,1-.714-0.72v-2.45a23.755,23.755,0,0,1-11.443.41v2.04a0.716,0.716,0,0,1-.714.72h-9.55a0.715,0.715,0,0,1-.714-0.72v-7.93a16.038,16.038,0,0,1-4.68-11.13c0-.16,0-0.32.007-0.48a4.611,4.611,0,0,1-2.908-2.79,0.715,0.715,0,0,1,1.35-.47,3.057,3.057,0,0,0,1.679,1.77c1.146-8.74,9.866-15.56,20.418-15.56a22,22,0,0,1,12.093,3.26l3.84-2.04a0.717,0.717,0,0,1,1.029.8l-1.033,4.4a13.378,13.378,0,0,1,4.362,8.34h3.295a1.849,1.849,0,0,1,.333-0.01,0.727,0.727,0,0,1,.147.01H693.6a0.723,0.723,0,0,1,.355.09c1.272,0.45,2.136,2.18,2.036,4.27a5.692,5.692,0,0,1-.845,2.82,2.5,2.5,0,0,1-2.151,1.28h-0.09c-0.04,0-.081.01-0.123,0.01h-3.861a16.816,16.816,0,0,1-2.718,4.49v8.87A0.716,0.716,0,0,1,685.492,2919.05Zm-2.16-1.43h1.447v-6.65c-0.457.44-.94,0.85-1.447,1.25v5.4h0Zm-1.529,0h0.1v-5.76a0.726,0.726,0,0,1,.286-0.57,16.421,16.421,0,0,0,5.182-6.32c-0.857-.01-1.81-0.01-2.738-0.01a3.584,3.584,0,0,1-3.8-2.95,0.709,0.709,0,0,1,.611-0.8,0.718,0.718,0,0,1,.8.6,2.165,2.165,0,0,0,2.386,1.73h6.376a5.634,5.634,0,0,1-.606-2.95,5.752,5.752,0,0,1,.749-2.66h-1.986a0.714,0.714,0,0,1-.707-0.62,12.22,12.22,0,0,0-4.3-8.36l-3.047-2.55a20.485,20.485,0,0,0-11.626-3.24c-10.145,0-18.47,6.69-19.083,15.11a0.68,0.68,0,0,1-.006.09c-0.02.3-.03,0.6-0.03,0.91a14.7,14.7,0,0,0,4.472,10.34,0.7,0.7,0,0,1,.208.5v7.51h4.435v-3.5a0.73,0.73,0,0,1,.326-0.6,0.715,0.715,0,0,1,.68-0.05,22.287,22.287,0,0,0,16.041.76,0.735,0.735,0,0,1,.643.1,0.723,0.723,0,0,1,.3.58v2.71H681.8Zm-20.892,0h2.261v-1.67a21.77,21.77,0,0,1-2.261-.75v2.42h0Zm32.069-14.1c0.029,0.01.057,0.01,0.086,0.02a1.161,1.161,0,0,0,.89-0.64,4.392,4.392,0,0,0,.612-2.11c0.072-1.49-.494-2.67-1.092-2.85-0.014,0-.027-0.01-0.041-0.01s-0.033-.01-0.049-0.01a0.127,0.127,0,0,1-.06-0.01,0.168,0.168,0,0,0-.069.01h-0.028a0.225,0.225,0,0,0-.078.02,1.409,1.409,0,0,0-.7.61,3.9,3.9,0,0,0-.492,1.22,0.962,0.962,0,0,1-.067,1.91,3.632,3.632,0,0,0,.354,1.13,1.364,1.364,0,0,0,.677.7c0.013,0,.026.01,0.039,0.01h0.021Zm-1.11-3.26c-0.016.13-.028,0.26-0.034,0.4h0c-0.008.18-.008,0.35,0,0.53A0.468,0.468,0,0,0,691.87,2900.26Zm-9.056-14.3,1.382,1.16,0.506-2.16Zm0.488,9.41a0.713,0.713,0,0,1-.713-0.71v-0.2a0.714,0.714,0,1,1,1.427,0v0.2A0.714,0.714,0,0,1,683.3,2895.37Zm-8.947-1.92a0.714,0.714,0,0,1-.714-0.71,26.213,26.213,0,0,1,.539-5.06,8.68,8.68,0,0,1,1.008-2.93,0.7,0.7,0,0,1,.67-0.28,6.869,6.869,0,0,1,3.531,1.71,7.919,7.919,0,0,1,1.5,2.14,0.714,0.714,0,1,1-1.3.59,6.545,6.545,0,0,0-1.205-1.71,5.21,5.21,0,0,0-2.233-1.21,13.871,13.871,0,0,0-.584,2,25.119,25.119,0,0,0-.5,4.75A0.713,0.713,0,0,1,674.355,2893.45Zm-11.009-6.44a0.721,0.721,0,0,1-.673-0.48,0.714,0.714,0,0,1,.435-0.91,19.673,19.673,0,0,1,4.341-.89,25.87,25.87,0,0,1,4.718-.01,0.714,0.714,0,0,1-.153,1.42,24.54,24.54,0,0,0-4.425.01,20.292,20.292,0,0,0-4.007.81A0.662,0.662,0,0,1,663.346,2887.01Zm3.7-7.27a4.9,4.9,0,1,1,4.888-4.9A4.9,4.9,0,0,1,667.048,2879.74Zm0-8.36a3.465,3.465,0,1,0,3.461,3.46A3.464,3.464,0,0,0,667.048,2871.38Z" transform="translate(-646 -2869.94)"/>
</svg>
