<svg xmlns="http://www.w3.org/2000/svg" width="53" height="48.32" viewBox="0 0 53 48.32">
  <defs>
    <style>
      .cls-1 {
        fill: #5c2c4e;
        fill-rule: evenodd;
      }
    </style>
  </defs>
  <path id="сумки" class="cls-1" d="M362.794,2918.66H337.771a0.779,0.779,0,0,1-.774-0.86l4.273-38.45a0.778,0.778,0,0,1,.773-0.69h5.9v-2.61a7.425,7.425,0,0,1,14.523,0v2.61h6.282a0.778,0.778,0,0,1,.775.71l0.973,11.25h1.861v-1.56a4.2,4.2,0,0,1,4.208-4.18,4.227,4.227,0,0,0,3.128,0,4.2,4.2,0,0,1,4.208,4.18v1.56h3.033a0.778,0.778,0,0,1,.775.71L390,2917.82a0.768,0.768,0,0,1-.2.59,0.78,0.78,0,0,1-.573.25H362.794Zm20.878-1.55h4.708l-2.157-24.94h-0.666Zm-10.882,0h9.321L384,2892.17h-3.219v1.23a0.778,0.778,0,0,1-1.556,0v-1.23h-5.3v1.23a0.778,0.778,0,0,1-1.556,0v-1.23h-1.728Zm-8.727,0h5.978l-4.107-3.65Zm-9.092,0h7.1l1.9-25.15s0-.01,0-0.02l0.887-11.73h-5.4v2.14a0.779,0.779,0,0,1-1.557,0v-2.14h-8.4v2.14a0.779,0.779,0,0,1-1.557,0v-2.14H342.74l-4.1,36.9h1.241l1.845-13.86a0.779,0.779,0,0,1,.772-0.67h2.382v-2.02a2.66,2.66,0,0,1,5.32,0v2.02h1.707a0.773,0.773,0,0,1,.768.65Zm-4.477,0h2.9l-1.991-12.03Zm-9.044,0h7.483l0.981-12.98h-6.735Zm25.012-5.25,4.67,4.15-3.1-35.8h-1.616l-0.892,11.81Zm-1.893-7.12-0.708,9.36,1.051-2.05Zm-18.133-2.16h2.207v-2.02a1.1,1.1,0,0,0-2.207,0v2.02h0Zm34.341-11.96h1.571v-1.56a2.647,2.647,0,0,0-2.511-2.63,4.133,4.133,0,0,1,.94,2.63v1.56Zm-3.733,0h2.177v-1.56a1.343,1.343,0,1,0-2.177,0v1.56Zm-3.127,0h1.571v-1.56a4.133,4.133,0,0,1,.94-2.63,2.647,2.647,0,0,0-2.511,2.63v1.56Zm-14.458-11.96h1.454v-2.61a4.185,4.185,0,0,0-3.138-4.04,5.686,5.686,0,0,1,1.684,4.04v2.61Zm-6.946,0H357.9v-2.61a2.878,2.878,0,1,0-5.389,0v2.61Zm-3.01,0h1.454v-2.61a5.686,5.686,0,0,1,1.684-4.04,4.185,4.185,0,0,0-3.138,4.04v2.61h0Z" transform="translate(-337 -2870.34)"/>
</svg>
